<svg width="33" height="30" viewBox="0 0 33 30" fill="none" xmlns="http://www.w3.org/2000/svg">
<path d="M32.25 15C32.25 6.71371 25.0328 0 16.125 0C7.21724 0 0 6.71371 0 15C0 23.2863 7.21724 30 16.125 30C25.0328 30 32.25 23.2863 32.25 15ZM3.12097 15C3.12097 8.31653 8.94027 2.90323 16.125 2.90323C23.3097 2.90323 29.129 8.31653 29.129 15C29.129 21.6835 23.3097 27.0968 16.125 27.0968C8.94027 27.0968 3.12097 21.6835 3.12097 15ZM7.80242 16.2097L7.80242 13.7903C7.80242 13.3911 8.15353 13.0645 8.58266 13.0645L16.125 13.0645V9.0121C16.125 8.36492 16.9638 8.04436 17.4579 8.49798L23.8949 14.4859C24.2005 14.7702 24.2005 15.2298 23.8949 15.5141L17.4579 21.502C16.9638 21.9617 16.125 21.6351 16.125 20.9879V16.9355H8.58266C8.15353 16.9355 7.80242 16.6089 7.80242 16.2097Z" fill="black"/>
</svg>
