<svg width="33" height="30" viewBox="0 0 33 30" fill="none" xmlns="http://www.w3.org/2000/svg">
<path d="M32.425 15C32.425 6.71371 25.2078 0 16.3 0C7.39229 0 0.175049 6.71371 0.175049 15C0.175049 23.2863 7.39229 30 16.3 30C25.2078 30 32.425 23.2863 32.425 15ZM3.29602 15C3.29602 8.31653 9.11532 2.90323 16.3 2.90323C23.4848 2.90323 29.3041 8.31653 29.3041 15C29.3041 21.6835 23.4848 27.0968 16.3 27.0968C9.11532 27.0968 3.29602 21.6835 3.29602 15ZM7.97747 16.2097L7.97747 13.7903C7.97747 13.3911 8.32858 13.0645 8.75771 13.0645L16.3 13.0645V9.0121C16.3 8.36492 17.1388 8.04436 17.633 8.49798L24.07 14.4859C24.3756 14.7702 24.3756 15.2298 24.07 15.5141L17.633 21.502C17.1388 21.9617 16.3 21.6351 16.3 20.9879V16.9355H8.75771C8.32858 16.9355 7.97747 16.6089 7.97747 16.2097Z" fill="white"/>
</svg>
